<svg width="24" height="24" viewBox="0 0 24 24" fill="none" xmlns="http://www.w3.org/2000/svg">
<g clip-path="url(#clip0_349_2227)">
<path d="M3.064 7.51C3.89638 5.85353 5.17282 4.46106 6.7508 3.48806C8.32878 2.51507 10.1462 1.99987 12 2C14.695 2 16.959 2.991 18.69 4.605L15.823 7.473C14.786 6.482 13.468 5.977 12 5.977C9.395 5.977 7.19 7.737 6.405 10.1C6.205 10.7 6.091 11.34 6.091 12C6.091 12.66 6.205 13.3 6.405 13.9C7.191 16.264 9.395 18.023 12 18.023C13.345 18.023 14.49 17.668 15.386 17.068C15.9054 16.726 16.3501 16.2822 16.6932 15.7635C17.0363 15.2448 17.2706 14.6619 17.382 14.05H12V10.182H21.418C21.536 10.836 21.6 11.518 21.6 12.227C21.6 15.273 20.51 17.837 18.618 19.577C16.964 21.105 14.7 22 12 22C10.6866 22.0005 9.38604 21.7422 8.17254 21.2399C6.95905 20.7375 5.85645 20.0009 4.92776 19.0722C3.99907 18.1436 3.2625 17.0409 2.76013 15.8275C2.25777 14.614 1.99948 13.3134 2 12C2 10.386 2.386 8.86 3.064 7.51Z" fill="white"/>
<path d="M8.35909 0.788944C5.96112 1.62082 3.89311 3.19976 2.45882 5.29382C1.02454 7.38789 0.299573 9.88671 0.390418 12.4233C0.481264 14.9598 1.38313 17.4004 2.96355 19.3864C4.54396 21.3725 6.71962 22.7995 9.17096 23.4577C11.1583 23.9705 13.2405 23.993 15.2385 23.5233C17.0484 23.1168 18.7218 22.2471 20.0947 20.9996C21.5236 19.6615 22.5608 17.9592 23.0947 16.0758C23.6751 14.0277 23.7783 11.8738 23.3966 9.77957H12.2366V14.4089H18.6997C18.5705 15.1473 18.2937 15.852 17.8859 16.4809C17.478 17.1098 16.9474 17.6499 16.326 18.0689C15.5367 18.591 14.6471 18.9423 13.7141 19.1002C12.7784 19.2742 11.8186 19.2742 10.8828 19.1002C9.93444 18.9041 9.03727 18.5127 8.24846 17.9508C6.98124 17.0538 6.02973 15.7794 5.52971 14.3096C5.02124 12.8122 5.02124 11.1888 5.52971 9.69144C5.88564 8.64185 6.47403 7.6862 7.25096 6.89582C8.14007 5.97472 9.26571 5.31631 10.5044 4.99284C11.743 4.66936 13.0469 4.69331 14.2728 5.06207C15.2305 5.35605 16.1063 5.8697 16.8303 6.56207C17.5591 5.83707 18.2866 5.11019 19.0128 4.38144C19.3878 3.98957 19.7966 3.61644 20.166 3.21519C19.0608 2.18671 17.7635 1.38643 16.3485 0.860194C13.7717 -0.0754498 10.9522 -0.100594 8.35909 0.788944Z" fill="white"/>
<path d="M8.35875 0.789855C10.9516 -0.100288 13.7711 -0.0758051 16.3481 0.85923C17.7634 1.38904 19.0601 2.19318 20.1637 3.22548C19.7887 3.62673 19.3931 4.00173 19.0106 4.39173C18.2831 5.11798 17.5562 5.84173 16.83 6.56298C16.106 5.87061 15.2302 5.35696 14.2725 5.06298C13.047 4.69293 11.7432 4.66759 10.5042 4.98975C9.26516 5.3119 8.13883 5.9691 7.24875 6.88923C6.47181 7.67961 5.88342 8.63526 5.5275 9.68486L1.64062 6.67548C3.03189 3.91653 5.44078 1.80615 8.35875 0.789855Z" fill="#E33629"/>
<path d="M0.611401 9.65605C0.820316 8.62067 1.16716 7.61798 1.64265 6.6748L5.52953 9.69168C5.02105 11.1891 5.02105 12.8124 5.52953 14.3098C4.23453 15.3098 2.9389 16.3148 1.64265 17.3248C0.452308 14.9554 0.0892746 12.2557 0.611401 9.65605Z" fill="#F8BD00"/>
<path d="M12.2391 9.77832H23.3991C23.7809 11.8726 23.6776 14.0264 23.0972 16.0746C22.5633 17.958 21.5261 19.6602 20.0972 20.9983C18.8429 20.0196 17.5829 19.0483 16.3285 18.0696C16.9504 17.6501 17.4812 17.1094 17.8891 16.4798C18.297 15.8503 18.5735 15.1448 18.7022 14.4058H12.2391C12.2372 12.8646 12.2391 11.3214 12.2391 9.77832Z" fill="#587DBD"/>
<path d="M1.64062 17.3246C2.93687 16.3246 4.2325 15.3196 5.5275 14.3096C6.02851 15.7799 6.98138 17.0544 8.25 17.9508C9.04127 18.5101 9.94037 18.8983 10.89 19.0908C11.8257 19.2648 12.7855 19.2648 13.7213 19.0908C14.6542 18.9329 15.5439 18.5816 16.3331 18.0596C17.5875 19.0383 18.8475 20.0096 20.1019 20.9883C18.7292 22.2366 17.0558 23.1068 15.2456 23.5139C13.2476 23.9836 11.1655 23.9611 9.17813 23.4483C7.60632 23.0286 6.13814 22.2888 4.86563 21.2752C3.51874 20.2059 2.41867 18.8583 1.64062 17.3246Z" fill="#319F43"/>
</g>
<defs>
<clipPath id="clip0_349_2227">
<rect width="24" height="24" fill="white"/>
</clipPath>
</defs>
</svg>
