<svg width="44" height="50" viewBox="0 0 44 50" fill="none" xmlns="http://www.w3.org/2000/svg">
<path fill-rule="evenodd" clip-rule="evenodd" d="M31.4267 0.853027C34.5571 0.853027 37.5593 2.09658 39.7729 4.31012C41.9864 6.52366 43.23 9.52586 43.23 12.6563V31.5415C43.23 34.6719 41.9864 37.6741 39.7729 39.8876C37.5593 42.1012 34.5571 43.3447 31.4267 43.3447H12.5415C9.41111 43.3447 6.40891 42.1012 4.19537 39.8876C1.98183 37.6741 0.738281 34.6719 0.738281 31.5415V12.6563C0.738281 9.52586 1.98183 6.52366 4.19537 4.31012C6.40891 2.09658 9.41111 0.853027 12.5415 0.853027H31.4267ZM31.4267 5.57433H12.5415C10.6633 5.57433 8.86196 6.32046 7.53383 7.64858C6.20571 8.9767 5.45958 10.778 5.45958 12.6563V31.5415C5.45958 33.4197 6.20571 35.221 7.53383 36.5492C8.86196 37.8773 10.6633 38.6234 12.5415 38.6234H31.4267C33.305 38.6234 35.1063 37.8773 36.4344 36.5492C37.7625 35.221 38.5087 33.4197 38.5087 31.5415V12.6563C38.5087 10.778 37.7625 8.9767 36.4344 7.64858C35.1063 6.32046 33.305 5.57433 31.4267 5.57433ZM21.9841 12.6563C24.4885 12.6563 26.8902 13.6511 28.661 15.4219C30.4319 17.1928 31.4267 19.5945 31.4267 22.0989C31.4267 24.6032 30.4319 27.005 28.661 28.7758C26.8902 30.5466 24.4885 31.5415 21.9841 31.5415C19.4798 31.5415 17.078 30.5466 15.3072 28.7758C13.5364 27.005 12.5415 24.6032 12.5415 22.0989C12.5415 19.5945 13.5364 17.1928 15.3072 15.4219C17.078 13.6511 19.4798 12.6563 21.9841 12.6563ZM21.9841 17.3776C20.732 17.3776 19.5311 17.875 18.6457 18.7604C17.7602 19.6458 17.2628 20.8467 17.2628 22.0989C17.2628 23.351 17.7602 24.5519 18.6457 25.4373C19.5311 26.3227 20.732 26.8202 21.9841 26.8202C23.2363 26.8202 24.4372 26.3227 25.3226 25.4373C26.208 24.5519 26.7054 23.351 26.7054 22.0989C26.7054 20.8467 26.208 19.6458 25.3226 18.7604C24.4372 17.875 23.2363 17.3776 21.9841 17.3776ZM32.607 9.1153C33.2331 9.1153 33.8336 9.36401 34.2763 9.80672C34.719 10.2494 34.9677 10.8499 34.9677 11.4759C34.9677 12.102 34.719 12.7025 34.2763 13.1452C33.8336 13.5879 33.2331 13.8366 32.607 13.8366C31.981 13.8366 31.3805 13.5879 30.9378 13.1452C30.4951 12.7025 30.2464 12.102 30.2464 11.4759C30.2464 10.8499 30.4951 10.2494 30.9378 9.80672C31.3805 9.36401 31.981 9.1153 32.607 9.1153Z" fill="white"/>
</svg>
