<svg width="58" height="58" viewBox="0 0 58 58" fill="none" xmlns="http://www.w3.org/2000/svg">
<path d="M45.9357 12.3618C43.7712 10.1761 41.1932 8.44305 38.3522 7.26366C35.5111 6.08427 32.4637 5.48212 29.3876 5.49231C16.4984 5.49231 5.99354 15.9972 5.99354 28.8863C5.99354 33.0175 7.07944 37.0306 9.1096 40.5716L5.80469 52.7053L18.1981 49.4476C21.621 51.3125 25.4689 52.304 29.3876 52.304C42.2767 52.304 52.7816 41.7991 52.7816 28.91C52.7816 22.6542 50.3501 16.7762 45.9357 12.3618ZM29.3876 48.3381C25.8938 48.3381 22.4709 47.3938 19.4728 45.6233L18.7647 45.1984L11.3994 47.1342L13.3588 39.9578L12.8866 39.226C10.9451 36.1266 9.9144 32.5436 9.91222 28.8863C9.91222 18.169 18.6466 9.4346 29.364 9.4346C34.5574 9.4346 39.4439 11.4648 43.1029 15.1474C44.915 16.9506 46.351 19.0957 47.3276 21.4582C48.3042 23.8207 48.802 26.3536 48.7921 28.91C48.8393 39.6273 40.1049 48.3381 29.3876 48.3381ZM40.0577 33.7965C39.4675 33.5132 36.5876 32.0968 36.0682 31.8844C35.5253 31.6955 35.1476 31.6011 34.7462 32.1677C34.3449 32.7578 33.2354 34.0798 32.9049 34.4575C32.5744 34.8588 32.2204 34.906 31.6302 34.5991C31.04 34.3158 29.1515 33.6785 26.9325 31.6955C25.1856 30.1375 24.0289 28.2254 23.6748 27.6352C23.3443 27.045 23.6276 26.7382 23.9345 26.4313C24.1941 26.1716 24.5246 25.7467 24.8079 25.4162C25.0912 25.0857 25.2092 24.826 25.3981 24.4483C25.5869 24.047 25.4925 23.7165 25.3509 23.4332C25.2092 23.15 24.0289 20.27 23.5568 19.0897C23.0846 17.9565 22.5889 18.0982 22.2348 18.0746H21.1017C20.7004 18.0746 20.0866 18.2162 19.5437 18.8064C19.0243 19.3965 17.5135 20.8129 17.5135 23.6929C17.5135 26.5729 19.6145 29.3585 19.8978 29.7362C20.181 30.1375 24.0289 36.0391 29.8833 38.565C31.2761 39.1788 32.362 39.5329 33.2118 39.7925C34.6046 40.2411 35.8794 40.1702 36.8944 40.0286C38.0275 39.8634 40.3646 38.6122 40.8367 37.243C41.3325 35.8739 41.3325 34.7172 41.1672 34.4575C41.002 34.1978 40.6479 34.0798 40.0577 33.7965Z" fill="white"/>
</svg>
