<svg width="57" height="58" viewBox="0 0 57 58" fill="none" xmlns="http://www.w3.org/2000/svg">
<path d="M23.9203 36.1807L36.1721 29.0988L23.9203 22.0168V36.1807ZM51.2094 17.6968C51.5163 18.8063 51.7288 20.2935 51.8704 22.1821C52.0357 24.0706 52.1065 25.6994 52.1065 27.1158L52.2481 29.0988C52.2481 34.2686 51.8704 38.0692 51.2094 40.5007C50.6193 42.6253 49.2501 43.9945 47.1255 44.5846C46.016 44.8915 43.9859 45.104 40.8698 45.2456C37.801 45.4108 34.9918 45.4817 32.3951 45.4817L28.6416 45.6233C18.7505 45.6233 12.5892 45.2456 10.1578 44.5846C8.03318 43.9945 6.664 42.6253 6.07384 40.5007C5.76696 39.3912 5.5545 37.904 5.41286 36.0155C5.24761 34.1269 5.1768 32.4981 5.1768 31.0817L5.03516 29.0988C5.03516 23.9289 5.41286 20.1283 6.07384 17.6968C6.664 15.5722 8.03318 14.2031 10.1578 13.6129C11.2673 13.306 13.2974 13.0936 16.4135 12.9519C19.4823 12.7867 22.2915 12.7159 24.8882 12.7159L28.6416 12.5742C38.5328 12.5742 44.6941 12.9519 47.1255 13.6129C49.2501 14.2031 50.6193 15.5722 51.2094 17.6968Z" fill="white"/>
</svg>
