<svg width="23" height="32" viewBox="0 0 23 32" fill="none" xmlns="http://www.w3.org/2000/svg">
<path d="M1.00589 0.829915C0.68703 1.09128 0.434055 1.40173 0.261451 1.74349C0.0888459 2.08526 0 2.45163 0 2.82163C0 3.19163 0.0888459 3.558 0.261451 3.89977C0.434055 4.24153 0.68703 4.55198 1.00589 4.81334L14.3516 15.7748L1.00589 26.7363C0.362764 27.2646 0.00145644 27.981 0.00145644 28.728C0.00145644 29.4751 0.362764 30.1915 1.00589 30.7197C1.64903 31.248 2.5213 31.5447 3.43082 31.5447C4.34034 31.5447 5.21262 31.248 5.85575 30.7197L21.6436 17.7524C21.9624 17.4911 22.2154 17.1806 22.388 16.8388C22.5606 16.4971 22.6495 16.1307 22.6495 15.7607C22.6495 15.3907 22.5606 15.0243 22.388 14.6826C22.2154 14.3408 21.9624 14.0304 21.6436 13.769L5.85575 0.801664C4.54869 -0.271884 2.34734 -0.271884 1.00589 0.829915Z" fill="black"/>
</svg>
