<svg width="23" height="32" viewBox="0 0 23 32" fill="none" xmlns="http://www.w3.org/2000/svg">
<path d="M21.6445 0.829915C21.9634 1.09128 22.2163 1.40173 22.3889 1.74349C22.5615 2.08526 22.6504 2.45163 22.6504 2.82163C22.6504 3.19163 22.5615 3.558 22.3889 3.89977C22.2163 4.24153 21.9634 4.55198 21.6445 4.81334L8.29881 15.7748L21.6445 26.7363C22.2876 27.2646 22.6489 27.981 22.6489 28.728C22.6489 29.4751 22.2876 30.1915 21.6445 30.7197C21.0014 31.248 20.1291 31.5447 19.2196 31.5447C18.31 31.5447 17.4378 31.248 16.7946 30.7197L1.00683 17.7524C0.687962 17.4911 0.434986 17.1806 0.262383 16.8388C0.089777 16.4971 0.000934601 16.1307 0.000934601 15.7607C0.000934601 15.3907 0.089777 15.0243 0.262383 14.6826C0.434986 14.3408 0.687962 14.0304 1.00683 13.769L16.7946 0.801664C18.1017 -0.271884 20.303 -0.271884 21.6445 0.829915Z" fill="black"/>
</svg>
