<svg width="30" height="31" viewBox="0 0 30 31" fill="none" xmlns="http://www.w3.org/2000/svg">
<path d="M19.3768 17.9998H18.3893L18.0393 17.6623C18.8205 16.7548 19.3914 15.6858 19.7112 14.5319C20.0311 13.3779 20.0919 12.1675 19.8893 10.9873C19.3018 7.51235 16.4018 4.73735 12.9018 4.31235C11.6713 4.15668 10.4215 4.28456 9.24808 4.68621C8.07463 5.08785 7.00861 5.75262 6.13159 6.62964C5.25457 7.50665 4.58981 8.57267 4.18816 9.74613C3.78651 10.9196 3.65863 12.1694 3.8143 13.3998C4.2393 16.8998 7.0143 19.7998 10.4893 20.3873C11.6695 20.5899 12.8799 20.5291 14.0338 20.2093C15.1878 19.8895 16.2568 19.3185 17.1643 18.5373L17.5018 18.8873V19.8748L22.8143 25.1873C23.3268 25.6998 24.1643 25.6998 24.6768 25.1873C25.1893 24.6748 25.1893 23.8373 24.6768 23.3248L19.3768 17.9998ZM11.8768 17.9998C8.7643 17.9998 6.2518 15.4873 6.2518 12.3748C6.2518 9.26235 8.7643 6.74985 11.8768 6.74985C14.9893 6.74985 17.5018 9.26235 17.5018 12.3748C17.5018 15.4873 14.9893 17.9998 11.8768 17.9998Z" fill="#005ED1"/>
</svg>
